HIERARCHY
ROOT root
{
	OFFSET 0.000000 0.000000 0.000000
	CHANNELS 6 Xposition Yposition Zposition Zrotation Yrotation Xrotation
	JOINT lhip
	{
		OFFSET 0.058581 -0.082280 -0.017664
		CHANNELS 3 Zrotation Yrotation Xrotation
		JOINT lknee
		{
			OFFSET 0.043451 -0.386469 0.008037
			CHANNELS 3 Zrotation Yrotation Xrotation
			JOINT lankle
			{
				OFFSET -0.014790 -0.426874 -0.037428
				CHANNELS 3 Zrotation Yrotation Xrotation
				JOINT ltoe
				{
					OFFSET 0.041054 -0.060286 0.122042
					CHANNELS 3 Zrotation Yrotation Xrotation
					End Site
					{
						OFFSET 0.000000 0.000000 0.000000
					}
				}
			}
		}
	}
	JOINT rhip
	{
		OFFSET -0.060310 -0.090513 -0.013543
		CHANNELS 3 Zrotation Yrotation Xrotation
		JOINT rknee
		{
			OFFSET -0.043257 -0.383688 -0.004843
			CHANNELS 3 Zrotation Yrotation Xrotation
			JOINT rankle
			{
				OFFSET 0.019056 -0.420046 -0.034562
				CHANNELS 3 Zrotation Yrotation Xrotation
				JOINT rtoe
				{
					OFFSET -0.034840 -0.062106 0.130323
					CHANNELS 3 Zrotation Yrotation Xrotation
					End Site
					{
						OFFSET 0.000000 0.000000 0.000000
					}
				}
			}
		}
	}
	JOINT lowerback
	{
		OFFSET 0.004439 0.124404 -0.038385
		CHANNELS 3 Zrotation Yrotation Xrotation
		JOINT upperback
		{
			OFFSET 0.004488 0.137956 0.026820
			CHANNELS 3 Zrotation Yrotation Xrotation
			JOINT chest
			{
				OFFSET -0.002265 0.056032 0.002855
				CHANNELS 3 Zrotation Yrotation Xrotation
				JOINT lowerneck
				{
					OFFSET -0.013390 0.211636 -0.033468
					CHANNELS 3 Zrotation Yrotation Xrotation
					JOINT upperneck
					{
						OFFSET 0.010113 0.088937 0.050410
						CHANNELS 3 Zrotation Yrotation Xrotation
						End Site
						{
							OFFSET 0.000000 0.000000 0.000000
						}
					}
				}
				JOINT lclavicle
				{
					OFFSET 0.071702 0.114000 -0.018898
					CHANNELS 3 Zrotation Yrotation Xrotation
					JOINT lshoulder
					{
						OFFSET 0.122921 0.045205 -0.019046
						CHANNELS 3 Zrotation Yrotation Xrotation
						JOINT lelbow
						{
							OFFSET 0.255332 -0.015649 -0.022946
							CHANNELS 3 Zrotation Yrotation Xrotation
							JOINT lwrist
							{
								OFFSET 0.265709 0.012698 -0.007375
								CHANNELS 3 Zrotation Yrotation Xrotation
								End Site
								{
									OFFSET 0.000000 0.000000 0.000000
								}
							}
						}
					}
				}
				JOINT rclavicle
				{
					OFFSET -0.082954 0.112472 -0.023707
					CHANNELS 3 Zrotation Yrotation Xrotation
					JOINT rshoulder
					{
						OFFSET -0.113228 0.046853 -0.008472
						CHANNELS 3 Zrotation Yrotation Xrotation
						JOINT relbow
						{
							OFFSET -0.260127 -0.014369 -0.031269
							CHANNELS 3 Zrotation Yrotation Xrotation
							JOINT rwrist
							{
								OFFSET -0.269108 0.006794 -0.006027
								CHANNELS 3 Zrotation Yrotation Xrotation
								End Site
								{
									OFFSET 0.000000 0.000000 0.000000
								}
							}
						}
					}
				}
			}
		}
	}
}
MOTION
Frames: 14
Frame Time: 0.033333
-1.430688 0.586391 0.981352 178.183352 -0.837023 85.878381 6.750493 7.335218 5.893282 -0.506425 -1.415579 4.392847 -2.970518 -0.072023 -14.970132 0.000000 -0.000000 0.000000 -10.073004 -15.224364 0.278969 -3.870864 -9.792062 7.805003 7.886470 -0.702508 -3.825434 0.000000 -0.000000 0.000000 -1.602837 3.601065 -4.249218 0.020658 -4.377549 15.593099 -1.758220 -1.110083 -7.626773 -1.147829 -25.467553 17.247668 16.911569 -24.860932 -1.732965 -26.049992 -3.253105 12.061116 -53.553264 -5.025739 2.901160 6.948032 -27.965996 12.263828 -17.499753 -12.796574 -6.883493 21.175021 7.866178 12.805624 67.218428 -0.895699 0.180013 -20.195685 29.740408 -2.184337 18.631810 13.642590 -20.704735 
-1.430864 0.583833 0.982726 178.975594 -1.204153 85.524568 6.095961 6.645301 6.018846 -0.307504 -2.175341 4.472802 -3.459071 0.572297 -15.025900 0.000000 -0.000000 0.000000 -10.596936 -15.121093 0.891304 -3.859960 -10.191575 7.571791 8.665211 -1.250047 -4.385196 0.000000 -0.000000 0.000000 -1.973739 3.367111 -2.667217 -0.347106 -4.475166 12.932862 -1.521769 -1.117584 -4.369913 2.315971 -23.633577 10.904069 17.735182 -26.281341 -3.131796 -24.820140 -2.670806 9.674320 -54.422113 -5.550576 5.056245 5.886648 -27.721992 14.135688 -12.588227 -13.734482 -11.565621 21.204837 7.089801 10.323689 67.131250 0.818406 0.571894 -21.301254 26.712706 -6.059033 6.818225 14.223262 -23.432583 
-1.430292 0.582737 0.983412 178.892989 -0.997579 85.714453 6.192560 6.353491 6.018038 -0.253440 -1.964637 4.227031 -3.637184 0.608552 -15.000544 0.000000 -0.000000 0.000000 -10.013036 -14.540275 0.678591 -4.185808 -10.384611 7.274956 8.760916 -1.437711 -4.697435 0.000000 -0.000000 0.000000 -1.833488 3.523349 -2.614324 -0.291587 -4.324509 12.392350 -1.504400 -1.042398 -3.472021 3.579162 -22.653578 8.697289 18.837384 -26.583078 -4.888748 -24.788157 -2.729398 8.684939 -54.275287 -5.501275 5.875716 5.453774 -27.680104 14.271217 -11.724949 -13.703048 -11.769226 21.326933 6.871730 9.474123 67.085628 0.871308 1.196733 -22.280421 26.561128 -7.570648 -0.782279 13.219816 -21.602877 
-1.430170 0.582371 0.983798 179.024663 -1.057488 85.835564 6.087612 5.977459 6.042328 -0.373863 -1.982685 4.011708 -3.473867 0.894589 -14.951649 0.000000 -0.000000 0.000000 -9.978641 -14.379846 0.648009 -4.144483 -10.102266 7.081671 8.562100 -2.036683 -4.520035 0.000000 -0.000000 0.000000 -2.068111 3.425698 -2.689415 -0.305455 -4.328485 12.699179 -1.298300 -0.959144 -3.823480 3.145760 -23.492685 8.655131 19.049269 -26.034840 -4.305547 -24.772503 -3.263500 8.471847 -54.861024 -4.652062 5.804094 6.509796 -28.434200 12.227858 -14.909764 -12.733094 -9.623292 20.679512 7.651341 9.178615 67.437269 -0.126693 1.590216 -20.554368 27.248095 -5.320766 15.160846 8.914695 -20.441829 
-1.430258 0.582360 0.984007 179.119852 -1.054272 85.837495 6.024318 5.929818 6.076584 -0.308327 -1.990737 3.936992 -3.397582 0.885147 -14.932765 0.000000 -0.000000 0.000000 -9.979676 -14.366336 0.680514 -4.152142 -10.165533 7.059769 8.533399 -2.009691 -4.497701 0.000000 -0.000000 0.000000 -2.012528 3.370175 -2.636829 -0.363441 -4.335691 12.714447 -1.312071 -0.880917 -3.844229 3.156184 -23.386820 8.615918 19.057524 -25.895055 -4.311161 -24.796632 -3.325145 8.427169 -54.950232 -4.640799 5.698411 6.461398 -28.469148 12.241683 -14.976313 -12.593400 -9.301867 20.694681 7.723186 9.233365 67.554832 0.068331 1.373465 -20.849776 27.145439 -5.472352 15.316495 8.942398 -20.180483 
-1.431259 0.582583 0.983363 179.546741 -1.440808 86.300101 5.253645 5.208624 5.621541 -0.056730 -2.128456 3.743882 -3.063453 1.427320 -14.761894 0.000000 -0.000000 0.000000 -10.500797 -14.191463 0.330454 -3.891198 -10.508137 7.078362 8.488734 -2.415115 -4.538121 0.000000 -0.000000 0.000000 -2.194851 3.452222 -3.052143 -0.528067 -4.406888 12.414869 -1.437573 -1.042192 -3.550388 3.268939 -23.597794 8.363595 18.899237 -25.926452 -4.170733 -24.716264 -3.320170 8.442380 -55.089079 -4.782188 6.064531 6.432066 -28.418209 12.086478 -14.274941 -12.516170 -9.477233 20.313587 7.614353 8.905416 67.841144 -0.208657 1.912623 -20.911376 27.202447 -5.458570 15.154995 8.701154 -20.609805 
-1.431162 0.582767 0.983288 179.756983 -1.436077 86.321346 5.251674 5.105078 5.584969 -0.049229 -2.154624 3.698935 -3.138255 1.424253 -14.712791 0.000000 -0.000000 0.000000 -10.479380 -14.120995 0.426499 -3.877499 -10.607200 6.943838 8.503715 -2.730695 -4.455851 0.000000 -0.000000 0.000000 -2.131152 3.452871 -2.896066 -0.570666 -4.364545 12.268992 -1.482019 -1.072529 -3.553019 3.268088 -23.758109 8.106691 18.654065 -26.094169 -3.728882 -24.767005 -3.305589 8.499514 -55.168847 -4.854843 6.150782 6.369995 -28.625516 12.177365 -14.190210 -12.493130 -9.596124 20.310035 7.620924 8.918239 67.730285 -0.106428 1.946253 -20.942613 27.434272 -5.508638 15.641808 8.940945 -20.511995 
-1.430180 0.583101 0.983667 179.767316 -1.206729 86.041222 5.681956 5.421619 5.884191 -0.102419 -2.258703 3.720079 -3.377644 1.078528 -14.755481 0.000000 -0.000000 0.000000 -10.200739 -14.162091 0.752861 -4.042481 -10.679361 6.930755 8.640293 -2.410852 -4.545708 0.000000 -0.000000 0.000000 -2.077143 3.394743 -2.341133 -0.520511 -4.247322 12.175082 -1.368151 -0.946189 -3.753001 3.412532 -23.730825 8.201747 18.676663 -26.084680 -3.770482 -25.001720 -3.251078 8.471732 -55.060410 -4.913001 6.161819 6.326702 -28.645865 12.288819 -14.006955 -12.710933 -9.593762 20.430296 7.583503 9.053083 67.407140 -0.056293 1.877412 -20.726246 27.735264 -5.337476 14.458003 9.167988 -20.576760 
-1.430562 0.583517 0.983006 -179.914895 -1.410104 86.367883 5.316500 4.975293 5.502768 -0.019737 -2.263982 3.706240 -3.213546 1.284898 -14.667382 0.000000 -0.000000 0.000000 -10.512766 -14.015891 0.547045 -3.818077 -10.824566 6.916624 8.626559 -2.788879 -4.503079 0.000000 -0.000000 0.000000 -2.201655 3.420748 -2.689144 -0.570486 -4.241312 12.029301 -1.399955 -1.086544 -3.554071 3.286928 -23.804048 8.103613 18.237360 -26.054701 -3.485063 -25.081517 -3.185878 8.464636 -55.056871 -5.092323 6.203684 6.229097 -28.620241 12.329232 -14.136302 -12.945957 -9.555099 20.240903 7.507755 8.849361 67.520703 -0.022522 2.090114 -20.817834 27.690892 -5.549120 13.709371 9.342727 -20.451128 
-1.430273 0.583800 0.983044 -179.882987 -1.316733 86.301001 5.422826 5.051084 5.584594 0.049735 -2.239503 3.703788 -3.302934 1.141272 -14.692595 0.000000 -0.000000 0.000000 -10.330035 -13.958193 0.685824 -3.955398 -10.957756 6.823605 8.557172 -2.777584 -4.434033 0.000000 -0.000000 0.000000 -2.140703 3.449185 -2.572248 -0.603194 -4.162936 12.099649 -1.380826 -1.033525 -3.684445 3.325073 -23.850888 8.234658 18.278671 -26.060194 -3.450620 -25.107171 -3.182641 8.365805 -55.214877 -5.027765 6.096867 6.492377 -28.826299 12.413058 -14.661896 -12.735687 -8.947993 20.171658 7.585940 9.002412 67.492444 0.108025 1.844343 -20.843585 28.072027 -5.647352 13.957571 9.036647 -20.855619 
-1.429656 0.584089 0.983269 -179.869282 -1.136384 86.050671 5.740457 5.247154 5.886190 -0.032893 -2.331571 3.706087 -3.462560 1.046093 -14.710755 0.000000 -0.000000 0.000000 -10.116105 -13.888580 1.018562 -3.988577 -10.728333 6.751711 8.524110 -2.968155 -4.537169 0.000000 -0.000000 0.000000 -2.044806 3.452854 -2.258073 -0.550884 -4.033476 12.051914 -1.339003 -0.977653 -3.699531 3.155791 -23.895644 8.344839 18.220641 -26.028082 -3.377090 -25.079714 -3.226597 8.435911 -55.261289 -5.052736 6.279565 6.361520 -29.103244 12.391696 -13.772071 -12.794450 -9.751654 20.141844 7.652145 8.975913 67.388487 0.003017 1.975070 -20.649198 28.394113 -5.769415 13.171260 9.150321 -21.355044 
-1.429325 0.584315 0.983710 -179.708814 -0.995839 85.811077 5.919750 5.356952 6.112812 0.037905 -2.508610 3.784696 -3.540106 0.851588 -14.876330 0.000000 -0.000000 0.000000 -9.921664 -14.019274 1.346620 -4.161708 -10.834083 6.704936 8.502089 -2.943630 -4.553929 0.000000 -0.000000 0.000000 -1.988712 3.444142 -1.958665 -0.523142 -4.030161 12.162819 -1.366415 -0.799542 -3.886081 3.407086 -24.073521 8.202707 18.168063 -26.220402 -3.398776 -25.065236 -3.244852 8.471287 -55.241369 -5.156936 6.364593 6.395351 -29.252932 12.419488 -13.777493 -12.811114 -10.025969 20.466836 7.548405 8.740703 67.289072 -0.230129 1.948535 -21.124211 28.675943 -5.988195 13.519154 8.959460 -20.877979 
-1.429012 0.584489 0.983633 -179.612133 -0.941123 85.781039 6.004721 5.264654 6.103099 -0.001851 -2.593262 3.859939 -3.484265 0.903865 -14.934059 0.000000 -0.000000 0.000000 -9.837357 -13.938918 1.436164 -4.147682 -10.879774 6.697142 8.425837 -3.052755 -4.694411 0.000000 -0.000000 0.000000 -1.990305 3.437062 -2.000608 -0.509275 -4.004201 12.278977 -1.348490 -0.769554 -3.917066 3.424924 -24.153253 8.093384 18.112076 -26.266347 -3.378458 -25.031817 -3.213392 8.377225 -55.185142 -5.115312 6.380371 6.269819 -29.401622 12.477092 -13.626406 -12.905367 -10.047980 20.344237 7.566968 8.562848 67.277981 -0.320744 2.001215 -20.910311 28.821578 -5.893166 13.279548 9.091736 -20.908381 
-1.428907 0.584739 0.983547 -179.558824 -0.934521 85.760908 6.013022 5.168037 6.135632 0.001949 -2.527046 3.881048 -3.465704 0.882709 -14.945521 0.000000 -0.000000 0.000000 -9.862090 -13.832573 1.458474 -4.154454 -11.160929 6.804730 8.442439 -2.991329 -4.665685 0.000000 -0.000000 0.000000 -1.997967 3.438617 -2.085387 -0.508414 -3.962024 12.362799 -1.367020 -0.780046 -3.895541 3.540728 -24.112852 8.061926 18.128736 -26.319010 -3.453132 -24.909001 -3.132236 8.292664 -55.267829 -5.102911 6.337207 6.362175 -29.456768 12.755211 -14.148021 -12.978001 -9.916649 20.296751 7.572622 8.626136 67.485321 -0.077138 2.034607 -21.123189 28.681448 -5.754594 13.034189 9.362447 -20.909438 
